PathFileType	4	(X/Y/Z)	Kaydara																																																																																																																																																																																																																												
DataRate	CameraRate	NumFrames	NumMarkers	Units	OrigDataRate	OrigDataStartFrame	OrigNumFrames																																																																																																																																																																																																																								
60	60	5	74	mm	60	1051	201																																																																																																																																																																																																																								
Frame#	Time	N_lasi			N_rasi			N_rpsi			N_lpsi			N_fneck			N_bneck			N_fhead			N_rhead			N_lhead			N_rshld			N_relbtop			N_relbext			N_relblow			N_rwrext			N_rwrtop			N_rwrlow			N_lshld			N_lelblow			N_lelbtop			N_lwrext			N_lwrtop			N_lwrlow			N_rtopleg			N_ltopleg			N_rkneefr			N_rkneebk			N_rkneeis			N_lkneefr			N_lknssbk			N_lkneeis			N_rankfr			N_rankis			N_rankbk			N_lankfr			N_lankbk			N_lankis			D_lasi			D_rasi			D_lpsi			D_fneck			D_bneck			D_fhead			D_rhead			D_lhead			D_rshld			D_relbtop			D_relbext			D_relblow			D_rwrext			D_rwrtop			D_rwrlow			D_lshld			D_lelbext			D_lelblow			D_lelbtop			D_lwrext			D_lwrtop			D_lwrlow			D_rtopleg			D_ltopleg			D_rkneefr			D_rkneebk			D_rkneeis			D_lkneefr			D_lknssbk			D_lkneeis			D_rankfr			D_rankis			D_rankbk			D_lankfr			D_lankbk			D_lankis			D_rpsi			N_lelbext		
		X1	Y1	Z1	X2	Y2	Z2	X3	Y3	Z3	X4	Y4	Z4	X5	Y5	Z5	X6	Y6	Z6	X7	Y7	Z7	X8	Y8	Z8	X9	Y9	Z9	X10	Y10	Z10	X11	Y11	Z11	X12	Y12	Z12	X13	Y13	Z13	X14	Y14	Z14	X15	Y15	Z15	X16	Y16	Z16	X17	Y17	Z17	X18	Y18	Z18	X19	Y19	Z19	X20	Y20	Z20	X21	Y21	Z21	X22	Y22	Z22	X23	Y23	Z23	X24	Y24	Z24	X25	Y25	Z25	X26	Y26	Z26	X27	Y27	Z27	X28	Y28	Z28	X29	Y29	Z29	X30	Y30	Z30	X31	Y31	Z31	X32	Y32	Z32	X33	Y33	Z33	X34	Y34	Z34	X35	Y35	Z35	X36	Y36	Z36	X37	Y37	Z37	X38	Y38	Z38	X39	Y39	Z39	X40	Y40	Z40	X41	Y41	Z41	X42	Y42	Z42	X43	Y43	Z43	X44	Y44	Z44	X45	Y45	Z45	X46	Y46	Z46	X47	Y47	Z47	X48	Y48	Z48	X49	Y49	Z49	X50	Y50	Z50	X51	Y51	Z51	X52	Y52	Z52	X53	Y53	Z53	X54	Y54	Z54	X55	Y55	Z55	X56	Y56	Z56	X57	Y57	Z57	X58	Y58	Z58	X59	Y59	Z59	X60	Y60	Z60	X61	Y61	Z61	X62	Y62	Z62	X63	Y63	Z63	X64	Y64	Z64	X65	Y65	Z65	X66	Y66	Z66	X67	Y67	Z67	X68	Y68	Z68	X69	Y69	Z69	X70	Y70	Z70	X71	Y71	Z71	X72	Y72	Z72	X73	Y73	Z73	X74	Y74	Z74
																																																																																																																																																																																																																															
101	17.5	-520.31731	1244.93851	-67.64647	-503.256	1259.77196	-299.98922	-231.50911	1223.13004	-347.51804	-258.4421	1219.03893	1.88958	-353.79951	1611.51382	-171.32929	-212.06285	1665.34271	-176.29969	-416.4587	1797.26242	-169.74394	-227.09938	1774.41635	-235.27147	-268.76305	1778.68286	-84.66245	-225.70841	1620.57159	-397.49115	-180.00719	1515.91324	-655.30952	-267.88313	1498.60443	-653.45222	-224.0918	1593.52783	-636.9656	-321.45508	1648.06808	-939.21951	-305.17239	1693.83148	-935.50919	-318.96978	1711.74881	-892.34238	-212.41028	1584.14658	32.00272	-213.87482	1549.37881	291.46114	-220.33268	1464.3045	307.52316	-297.02553	1632.67639	590.21732	-253.17787	1649.99573	599.62334	-254.6051	1685.21133	555.77522	-408.40313	1051.67664	-431.926	-366.40774	1013.29391	51.58214	-428.17539	564.18503	-260.12938	-319.67762	580.62389	-324.73503	-371.33022	565.58678	-164.01735	-384.19361	540.44632	-99.06446	-259.60545	554.83601	-36.8058	-257.39159	547.68574	-186.14004	-292.98557	141.0266	-273.06049	-297.87903	154.40175	-193.26305	-215.80627	142.21139	-215.13567	-334.31736	192.15342	-120.30265	-262.6898	184.96765	-75.25602	-298.6898	163.96765	-159.25602	-463.09967	1038.46512	1733.19626	-422.1928	1053.93593	1445.7872	-264.69641	1133.04489	1739.61746	-399.99371	1565.71487	1583.11493	-259.92697	1592.10373	1590.75699	-442.04922	1773.63663	1585.65689	-279.22855	1734.47083	1507.59171	-286.7951	1731.9371	1663.37204	-324.63646	1554.888	1422.38022	-385.21198	1420.40863	1138.05496	-430.69069	1458.33755	1181.78848	-335.60745	1483.17993	1172.11624	-462.67727	1697.00897	1107.55936	-406.01143	1710.30716	1102.34894	-402.1891	1701.24771	1155.71121	-316.79283	1551.95236	1789.08646	-396.73618	1489.75204	2012.10632	-304.65597	1492.97958	2018.08685	-354.46476	1444.12842	2061.71371	-410.94677	1724.56665	2074.23386	-368.79444	1728.56339	2059.49554	-368.89973	1717.04697	2012.06451	-328.44353	1005.16708	1403.08487	-321.55823	1010.57564	1803.88229	-372.53277	455.65239	1447.81174	-272.62026	490.93746	1419.46014	-280.00921	459.02531	1540.73792	-360.29148	451.22631	1768.31375	-247.40665	486.39748	1783.64853	-319.81388	443.84068	1677.25098	-323.75614	130.12373	1417.47482	-294.52969	126.74058	1482.01859	-243.32281	127.52403	1417.27005	-323.67115	134.93482	1791.58325	-250.87833	125.003	1805.38712	-294.26939	123.7807	1732.17026	-233.8316	1145.30136	1522.98477	-300.94784	1502.20703	301.95145
102	17.517	-520.0045	1245.90843	-67.85632	-503.60596	1260.35927	-300.71573	-232.56237	1223.70018	-347.52037	-258.46836	1219.3306	1.55432	-354.04358	1611.68671	-171.00269	-212.30698	1665.51575	-175.97309	-417.24857	1797.51083	-169.82845	-227.45077	1774.47083	-234.80398	-269.58212	1778.95538	-84.28724	-225.16302	1624.55505	-392.45888	-177.31522	1527.81723	-653.93295	-266.02169	1514.36188	-654.40094	-218.48066	1606.59821	-631.76777	-314.90955	1685.58441	-928.30826	-295.95287	1729.96857	-921.85562	-307.89169	1745.80856	-877.37198	-211.60946	1585.77072	27.41663	-210.61069	1560.70847	287.00506	-218.47281	1476.05469	306.97247	-291.29629	1665.0209	579.71905	-246.52672	1681.33011	587.87682	-246.46593	1713.46298	542.13257	-408.92376	1051.353	-431.10722	-366.58257	1013.7085	51.96724	-428.18565	564.17603	-260.13498	-319.53922	580.74776	-324.56871	-371.52264	565.54363	-163.9983	-384.43523	540.5188	-98.87789	-259.76389	554.84753	-36.63939	-257.56393	547.72064	-186.00025	-292.77126	141.14197	-273.20263	-297.80041	154.43143	-193.44685	-215.77425	142.29513	-215.08022	-334.40979	192.11765	-120.28132	-262.73352	184.95235	-75.25803	-298.73352	163.95235	-159.25803	-463.26927	1038.47366	1733.13446	-422.39285	1054.04442	1445.86304	-264.86298	1133.05679	1739.5195	-400.10826	1565.67413	1583.09311	-260.16632	1592.16599	1590.79819	-442.42409	1773.52417	1585.79376	-279.52078	1734.44321	1507.52167	-287.13842	1732.00958	1663.46283	-324.79225	1554.92722	1422.43881	-384.98642	1420.45624	1138.03368	-430.7032	1458.02567	1181.78268	-335.71785	1483.40973	1172.07603	-463.83301	1696.42319	1107.59262	-407.21153	1710.22491	1102.58316	-403.56827	1701.19293	1155.92484	-316.92402	1551.93573	1789.10385	-396.80531	1489.55566	2012.11594	-304.76486	1492.88254	2018.08548	-354.51672	1444.02481	2061.74561	-411.28193	1724.31992	2074.189	-369.26594	1728.38013	2059.29642	-369.30611	1716.90094	2011.86234	-328.6031	1005.17242	1403.09692	-321.68575	1010.56572	1803.90594	-372.74677	455.89497	1447.79633	-272.74958	490.95116	1419.42001	-280.13813	459.01806	1540.63889	-360.41092	451.21132	1768.22372	-247.5938	486.48441	1783.58734	-319.97894	443.84727	1677.18246	-323.81889	130.12589	1417.46506	-294.538	126.80417	1482.02545	-243.39794	127.52464	1417.2406	-323.69667	134.92922	1791.5567	-250.93174	125.02209	1805.42236	-294.31625	123.81504	1732.11899	-233.96454	1145.19608	1522.96112	-298.19866	1515.58472	300.01751
103	17.533	-519.66003	1246.75209	-68.17325	-503.7711	1261.17699	-301.43492	-233.42802	1224.33067	-347.64153	-258.50924	1219.67041	1.20033	-354.25289	1611.86035	-170.79615	-212.51629	1665.68939	-175.76654	-417.89406	1797.95639	-169.77627	-227.59119	1774.58572	-234.16731	-270.6226	1778.8942	-83.9131	-224.2808	1627.75513	-387.33967	-174.83137	1538.46558	-651.69922	-263.75679	1528.83514	-652.89513	-212.9845	1617.92862	-626.28483	-307.67941	1720.13336	-915.8493	-286.08704	1762.94006	-906.85143	-296.33486	1776.54099	-861.32561	-210.9898	1587.21573	23.1035	-207.74822	1571.10092	282.79737	-216.74564	1487.15179	306.45866	-284.43211	1693.86429	568.86963	-239.56367	1709.60068	575.835	-238.40528	1738.7088	528.75088	-409.22398	1051.24405	-430.59269	-366.65756	1014.20303	52.31596	-428.17791	564.16275	-260.16584	-319.45997	580.87246	-324.44065	-371.60805	565.51861	-163.95275	-384.57691	540.52193	-98.75007	-259.83377	554.83501	-36.53847	-257.66655	547.74982	-185.92155	-292.59403	141.22662	-273.32121	-297.74536	154.42944	-193.60083	-215.53352	142.41226	-215.23613	-334.44763	192.1137	-120.28167	-262.52487	184.73215	-75.52329	-298.52487	163.73215	-159.52329	-463.45879	1038.47771	1733.1041	-422.53239	1054.15016	1445.99365	-265.06174	1133.07289	1739.43039	-400.22457	1565.66986	1583.11279	-260.35118	1592.23358	1590.81635	-442.83119	1773.42422	1585.86349	-279.72382	1734.70551	1507.98798	-287.42836	1732.06284	1663.54462	-324.88556	1554.94675	1422.50778	-384.70039	1420.45242	1137.96165	-430.64266	1457.6413	1181.87294	-335.79689	1483.61053	1172.05971	-465.24014	1696.00876	1107.67029	-408.80516	1709.99237	1102.41165	-405.02899	1700.93933	1156.0807	-317.12442	1551.93924	1789.17633	-396.94977	1489.36401	2012.19757	-304.88186	1492.79984	2018.10043	-354.60602	1443.95493	2061.70044	-411.92509	1724.20654	2074.29016	-369.84398	1728.21808	2059.2038	-369.7876	1716.66656	2012.03323	-328.74199	1005.17891	1403.07892	-321.87	1010.56198	1803.82538	-372.88383	455.79521	1448.0899	-272.92467	490.96649	1419.35486	-280.1955	459.09061	1540.6395	-360.51044	451.21548	1768.18222	-247.76728	486.55548	1783.62122	-320.14194	443.86696	1677.14905	-323.84941	130.13261	1417.44308	-294.54245	126.80147	1481.99203	-243.44908	127.56289	1417.23572	-323.84678	134.82295	1791.47568	-251.14462	124.91027	1805.15549	-294.36094	123.80835	1732.12784	-234.06052	1145.20065	1523.03986	-295.57802	1528.17276	297.94464
104	17.55	-519.27921	1247.66411	-68.52079	-503.72089	1262.12257	-302.10388	-234.10669	1224.61113	-347.77576	-258.54727	1220.05836	0.87324	-354.39373	1611.88263	-170.7445	-212.65709	1665.71152	-175.71489	-418.38268	1798.49075	-169.67342	-227.82953	1774.6666	-233.80592	-271.44783	1778.56857	-83.51625	-223.08695	1630.36789	-382.56916	-172.24224	1547.46704	-649.39583	-261.70849	1542.22549	-650.67673	-207.73867	1627.78244	-620.49927	-299.99691	1751.67892	-902.09839	-275.90828	1792.73071	-890.77599	-284.50432	1803.96835	-844.31198	-210.75735	1588.49274	19.62121	-204.96571	1580.42969	278.55877	-214.74464	1497.33383	305.7572	-277.68509	1719.53415	557.87281	-232.39853	1734.50943	563.9035	-230.30918	1760.87845	515.47924	-409.31198	1051.42342	-430.13088	-366.68705	1014.81163	52.42712	-428.19672	564.16466	-260.07236	-319.47073	580.91991	-324.33838	-371.67694	565.52322	-163.87012	-384.53064	540.51102	-98.52738	-259.74508	554.82826	-36.46702	-257.7306	547.75322	-185.86676	-292.52964	141.27046	-273.38648	-297.73212	154.46383	-193.70058	-215.72721	142.38746	-215.0948	-334.42604	192.11172	-120.20731	-262.35655	184.65172	-75.63583	-298.35655	163.65172	-159.63583	-463.62186	1038.48106	1733.0722	-422.67204	1054.25331	1446.07574	-265.23323	1133.08083	1739.39972	-400.41389	1565.67566	1583.1694	-260.62584	1592.29584	1590.84015	-443.09708	1773.3255	1585.90118	-280.04807	1734.75052	1508.05878	-287.81494	1732.08847	1663.62717	-325.00275	1554.98398	1422.53738	-384.25735	1420.36652	1137.99393	-430.57945	1457.22992	1181.95969	-335.85278	1483.8327	1172.04247	-466.83941	1695.34195	1107.81006	-410.39021	1709.79111	1102.83226	-406.79203	1700.8075	1156.39313	-317.33862	1551.93604	1789.2424	-397.26139	1489.21967	2012.18689	-305.02689	1492.75665	2018.14499	-354.76036	1443.909	2061.73843	-412.22656	1723.87054	2074.15527	-370.35103	1728.06839	2059.43451	-370.22331	1716.40198	2012.06482	-328.88367	1005.18326	1403.1015	-322.0496	1010.52437	1803.72757	-372.97733	455.85617	1447.85721	-273.02277	491.01299	1419.23706	-280.28835	459.0815	1540.58014	-360.60501	451.20514	1768.17062	-247.94231	486.61285	1783.58414	-320.26794	443.92651	1677.07413	-323.87779	130.13964	1417.43896	-294.55641	126.79539	1481.95847	-243.51542	127.57653	1417.21939	-323.88351	134.81862	1791.45004	-251.09272	125.1049	1805.3746	-294.40371	123.82337	1732.08633	-234.15169	1145.19524	1523.09967	-292.94561	1539.64371	296.25946
105	17.567	-518.99853	1248.6422	-68.91799	-503.55118	1263.15674	-302.7627	-234.52015	1224.63028	-347.93434	-258.6105	1220.54039	0.67302	-354.70196	1611.88065	-170.64573	-212.96534	1665.70953	-175.61613	-418.76289	1799.00742	-169.55236	-228.05042	1774.87762	-233.38955	-272.0647	1778.27423	-83.18009	-221.45901	1632.30682	-378.56262	-170.10204	1554.99664	-646.96419	-259.71445	1554.42963	-648.62923	-202.40505	1636.16104	-615.08495	-291.99118	1780.3656	-887.00127	-265.52692	1819.30099	-873.92792	-272.57862	1828.22128	-826.66359	-210.66904	1589.83414	16.69279	-202.33204	1588.79822	274.7024	-212.86928	1506.57501	305.24441	-270.8872	1742.15744	546.95911	-225.18299	1756.3147	552.31098	-222.16385	1780.1564	502.74391	-409.30721	1051.70753	-429.95628	-366.64284	1015.69992	52.14884	-428.16002	564.14162	-259.97562	-319.52496	580.92934	-324.23252	-371.60576	565.48645	-163.75471	-384.41776	540.5175	-98.34855	-259.55307	554.83467	-36.39219	-257.74891	547.74483	-185.81614	-292.53836	141.28065	-273.37336	-297.70908	154.45844	-193.66322	-215.70362	142.4011	-215.11007	-334.38122	192.11786	-120.14664	-262.24457	184.67112	-75.63314	-298.24457	163.67112	-159.63314	-463.77232	1038.45963	1733.04596	-422.81288	1054.34647	1446.12091	-265.41754	1133.11172	1739.41559	-400.60093	1565.63751	1583.17871	-260.8971	1592.37564	1590.79773	-443.44505	1773.20084	1585.9201	-280.36205	1734.90768	1509.30649	-288.30408	1732.10663	1663.74786	-325.13229	1555.05508	1422.63199	-383.69049	1420.17593	1138.17398	-430.37804	1456.70792	1181.97342	-335.97954	1484.02527	1172.26212	-468.58116	1694.31915	1107.71774	-412.30083	1709.25446	1102.86148	-408.86116	1700.34363	1156.45569	-317.90863	1551.99966	1789.35089	-397.4984	1488.88031	2012.2641	-305.22989	1492.68036	2018.24158	-355.0206	1443.82095	2061.66626	-412.83001	1723.59055	2074.17603	-370.7719	1727.87399	2059.67316	-370.84282	1716.21002	2011.79276	-328.96992	1005.20981	1403.07175	-322.26086	1010.45181	1803.71475	-373.06862	455.78949	1448.0542	-273.22672	490.93803	1419.33578	-280.36785	459.07082	1540.53558	-360.69893	451.21696	1768.11569	-248.11823	486.64711	1783.61435	-320.39783	443.95973	1677.0134	-323.92036	130.1401	1417.41776	-294.61176	126.79874	1481.96732	-243.56548	127.56655	1417.24411	-323.91804	134.81497	1791.40472	-251.11393	125.07727	1805.29572	-294.43933	123.83253	1732.04437	-234.17103	1145.06882	1523.16635	-290.3249	1549.79645	294.56539
